# xmcd CD database file
#
# Track frame offsets:
#	150
#	11747
#	22881
#	35139
#	47830
#	63585
#	75950
#	85787
#	101351
#	118358
#	131376
#	143746
#	155773
#	166605
#
# Disc length: 2365 seconds
#
# Revision: 0
# Processed by: cddbd v1.5.2PL0 Copyright (c) Steve Scherf et al.
# Submitted via: CDex 1.51
#
DISCID=ac093b0e
DTITLE=Dale Watson - Whiskey Or God
DYEAR=2006
DGENRE=Country
TTITLE0=Sit and Drink and Cry
TTITLE1=Whiskey or God
TTITLE2=I Don't Feel Too Lucky Today
TTITLE3=No Help Wanted
TTITLE4=My Heart Is Yours
TTITLE5=It Hurts So Good
TTITLE6=Truckin' Queen (I Got My Night Gown On...)
TTITLE7=Darlin' Look At Me Now
TTITLE8=I Wish I Was Crazy Again
TTITLE9=I Ain't Been Right, Since I've Been Left
TTITLE10=Tequila and Teardrops
TTITLE11=38..21..34
TTITLE12=Outta Luck
TTITLE13=Dale Watson - Hee-Ah!!
EXTD=YEAR: 2006
EXTT0=
EXTT1=
EXTT2=
EXTT3=
EXTT4=
EXTT5=
EXTT6=
EXTT7=
EXTT8=
EXTT9=
EXTT10=
EXTT11=
EXTT12=
EXTT13=
PLAYORDER=
